<mxfile host="app.diagrams.net" modified="2024-05-27T14:07:45.976Z" agent="Mozilla/5.0 (Windows NT 10.0; Win64; x64) AppleWebKit/537.36 (KHTML, like Gecko) Chrome/121.0.0.0 Safari/537.36" etag="TQhoDcRklai2CwZuWrEW" version="24.4.9" type="device" pages="4">
  <diagram name="Página-1" id="-c2QyconOCnsrTDdFJ5u">
    <mxGraphModel dx="2261" dy="782" grid="1" gridSize="10" guides="1" tooltips="1" connect="1" arrows="1" fold="1" page="1" pageScale="1" pageWidth="827" pageHeight="1169" math="0" shadow="0">
      <root>
        <mxCell id="0" />
        <mxCell id="1" parent="0" />
        <mxCell id="rgNGae-GPq3PH6ZiQCpS-5" value="" style="edgeStyle=orthogonalEdgeStyle;rounded=0;orthogonalLoop=1;jettySize=auto;html=1;" parent="1" source="rgNGae-GPq3PH6ZiQCpS-1" target="rgNGae-GPq3PH6ZiQCpS-4" edge="1">
          <mxGeometry relative="1" as="geometry" />
        </mxCell>
        <mxCell id="rgNGae-GPq3PH6ZiQCpS-1" value="&lt;b&gt;INICIO&lt;/b&gt;" style="ellipse;whiteSpace=wrap;html=1;" parent="1" vertex="1">
          <mxGeometry x="10" y="30" width="120" height="80" as="geometry" />
        </mxCell>
        <mxCell id="rgNGae-GPq3PH6ZiQCpS-9" value="" style="edgeStyle=orthogonalEdgeStyle;rounded=0;orthogonalLoop=1;jettySize=auto;html=1;" parent="1" source="rgNGae-GPq3PH6ZiQCpS-4" target="rgNGae-GPq3PH6ZiQCpS-8" edge="1">
          <mxGeometry relative="1" as="geometry" />
        </mxCell>
        <mxCell id="rgNGae-GPq3PH6ZiQCpS-11" value="" style="edgeStyle=orthogonalEdgeStyle;rounded=0;orthogonalLoop=1;jettySize=auto;html=1;" parent="1" source="rgNGae-GPq3PH6ZiQCpS-4" target="rgNGae-GPq3PH6ZiQCpS-10" edge="1">
          <mxGeometry relative="1" as="geometry" />
        </mxCell>
        <mxCell id="rgNGae-GPq3PH6ZiQCpS-4" value="LISTAR CLIENTE&amp;nbsp;" style="whiteSpace=wrap;html=1;" parent="1" vertex="1">
          <mxGeometry x="10" y="200" width="120" height="60" as="geometry" />
        </mxCell>
        <mxCell id="rgNGae-GPq3PH6ZiQCpS-67" value="" style="edgeStyle=orthogonalEdgeStyle;rounded=0;orthogonalLoop=1;jettySize=auto;html=1;" parent="1" source="rgNGae-GPq3PH6ZiQCpS-8" target="rgNGae-GPq3PH6ZiQCpS-66" edge="1">
          <mxGeometry relative="1" as="geometry" />
        </mxCell>
        <mxCell id="rgNGae-GPq3PH6ZiQCpS-8" value="BUSCAR CLIENTE&amp;nbsp;" style="whiteSpace=wrap;html=1;" parent="1" vertex="1">
          <mxGeometry x="10" y="340" width="120" height="60" as="geometry" />
        </mxCell>
        <mxCell id="rgNGae-GPq3PH6ZiQCpS-14" value="NÃO" style="edgeStyle=orthogonalEdgeStyle;rounded=0;orthogonalLoop=1;jettySize=auto;html=1;" parent="1" source="rgNGae-GPq3PH6ZiQCpS-10" target="rgNGae-GPq3PH6ZiQCpS-12" edge="1">
          <mxGeometry relative="1" as="geometry" />
        </mxCell>
        <mxCell id="rgNGae-GPq3PH6ZiQCpS-15" value="SIM" style="edgeStyle=orthogonalEdgeStyle;rounded=0;orthogonalLoop=1;jettySize=auto;html=1;entryX=1;entryY=0.75;entryDx=0;entryDy=0;" parent="1" source="rgNGae-GPq3PH6ZiQCpS-10" target="rgNGae-GPq3PH6ZiQCpS-8" edge="1">
          <mxGeometry relative="1" as="geometry">
            <mxPoint x="180" y="420" as="targetPoint" />
            <Array as="points">
              <mxPoint x="270" y="380" />
              <mxPoint x="130" y="380" />
            </Array>
          </mxGeometry>
        </mxCell>
        <mxCell id="rgNGae-GPq3PH6ZiQCpS-10" value="POSSUI CADASTRO?" style="rhombus;whiteSpace=wrap;html=1;" parent="1" vertex="1">
          <mxGeometry x="230" y="190" width="80" height="80" as="geometry" />
        </mxCell>
        <mxCell id="rgNGae-GPq3PH6ZiQCpS-17" value="" style="edgeStyle=orthogonalEdgeStyle;rounded=0;orthogonalLoop=1;jettySize=auto;html=1;" parent="1" source="rgNGae-GPq3PH6ZiQCpS-12" target="rgNGae-GPq3PH6ZiQCpS-16" edge="1">
          <mxGeometry relative="1" as="geometry" />
        </mxCell>
        <mxCell id="rgNGae-GPq3PH6ZiQCpS-12" value="CADASTRAR CLIENTE&amp;nbsp;" style="whiteSpace=wrap;html=1;" parent="1" vertex="1">
          <mxGeometry x="420" y="200" width="120" height="60" as="geometry" />
        </mxCell>
        <mxCell id="rgNGae-GPq3PH6ZiQCpS-37" value="NÃO" style="edgeStyle=orthogonalEdgeStyle;rounded=0;orthogonalLoop=1;jettySize=auto;html=1;" parent="1" source="rgNGae-GPq3PH6ZiQCpS-16" target="rgNGae-GPq3PH6ZiQCpS-36" edge="1">
          <mxGeometry relative="1" as="geometry">
            <Array as="points">
              <mxPoint x="680" y="340" />
              <mxPoint x="580" y="340" />
            </Array>
          </mxGeometry>
        </mxCell>
        <mxCell id="rgNGae-GPq3PH6ZiQCpS-58" value="SIM" style="edgeStyle=orthogonalEdgeStyle;rounded=0;orthogonalLoop=1;jettySize=auto;html=1;" parent="1" source="rgNGae-GPq3PH6ZiQCpS-16" target="rgNGae-GPq3PH6ZiQCpS-57" edge="1">
          <mxGeometry relative="1" as="geometry" />
        </mxCell>
        <mxCell id="rgNGae-GPq3PH6ZiQCpS-16" value="É VALIDO?" style="rhombus;whiteSpace=wrap;html=1;" parent="1" vertex="1">
          <mxGeometry x="640" y="190" width="80" height="80" as="geometry" />
        </mxCell>
        <mxCell id="rgNGae-GPq3PH6ZiQCpS-36" value="MOSTRAR ERRO&amp;nbsp;" style="whiteSpace=wrap;html=1;" parent="1" vertex="1">
          <mxGeometry x="520" y="360" width="120" height="60" as="geometry" />
        </mxCell>
        <mxCell id="rgNGae-GPq3PH6ZiQCpS-41" style="edgeStyle=orthogonalEdgeStyle;rounded=0;orthogonalLoop=1;jettySize=auto;html=1;entryX=0.417;entryY=1;entryDx=0;entryDy=0;entryPerimeter=0;" parent="1" source="rgNGae-GPq3PH6ZiQCpS-36" target="rgNGae-GPq3PH6ZiQCpS-12" edge="1">
          <mxGeometry relative="1" as="geometry">
            <Array as="points">
              <mxPoint x="580" y="340" />
              <mxPoint x="470" y="340" />
            </Array>
          </mxGeometry>
        </mxCell>
        <mxCell id="rgNGae-GPq3PH6ZiQCpS-62" style="edgeStyle=orthogonalEdgeStyle;rounded=0;orthogonalLoop=1;jettySize=auto;html=1;entryX=1;entryY=0.5;entryDx=0;entryDy=0;" parent="1" source="rgNGae-GPq3PH6ZiQCpS-57" target="rgNGae-GPq3PH6ZiQCpS-1" edge="1">
          <mxGeometry relative="1" as="geometry" />
        </mxCell>
        <mxCell id="rgNGae-GPq3PH6ZiQCpS-57" value="CADASTRADO&amp;nbsp;&lt;div&gt;COM SUCESSO&lt;/div&gt;" style="whiteSpace=wrap;html=1;" parent="1" vertex="1">
          <mxGeometry x="620" y="40" width="120" height="60" as="geometry" />
        </mxCell>
        <mxCell id="rgNGae-GPq3PH6ZiQCpS-69" value="NÃO" style="edgeStyle=orthogonalEdgeStyle;rounded=0;orthogonalLoop=1;jettySize=auto;html=1;entryX=0;entryY=0.25;entryDx=0;entryDy=0;" parent="1" source="rgNGae-GPq3PH6ZiQCpS-66" target="rgNGae-GPq3PH6ZiQCpS-8" edge="1">
          <mxGeometry relative="1" as="geometry">
            <Array as="points">
              <mxPoint x="-10" y="500" />
              <mxPoint x="-10" y="355" />
            </Array>
          </mxGeometry>
        </mxCell>
        <mxCell id="rgNGae-GPq3PH6ZiQCpS-94" value="SIM" style="edgeStyle=orthogonalEdgeStyle;rounded=0;orthogonalLoop=1;jettySize=auto;html=1;" parent="1" source="rgNGae-GPq3PH6ZiQCpS-66" target="rgNGae-GPq3PH6ZiQCpS-70" edge="1">
          <mxGeometry relative="1" as="geometry" />
        </mxCell>
        <mxCell id="rgNGae-GPq3PH6ZiQCpS-66" value="CLIENTE ENCONTRADO?" style="rhombus;whiteSpace=wrap;html=1;" parent="1" vertex="1">
          <mxGeometry x="20" y="450" width="100" height="100" as="geometry" />
        </mxCell>
        <mxCell id="rgNGae-GPq3PH6ZiQCpS-73" value="SIM" style="edgeStyle=orthogonalEdgeStyle;rounded=0;orthogonalLoop=1;jettySize=auto;html=1;" parent="1" source="rgNGae-GPq3PH6ZiQCpS-70" target="rgNGae-GPq3PH6ZiQCpS-72" edge="1">
          <mxGeometry relative="1" as="geometry" />
        </mxCell>
        <mxCell id="rgNGae-GPq3PH6ZiQCpS-84" value="NÃO" style="edgeStyle=orthogonalEdgeStyle;rounded=0;orthogonalLoop=1;jettySize=auto;html=1;" parent="1" source="rgNGae-GPq3PH6ZiQCpS-70" target="rgNGae-GPq3PH6ZiQCpS-83" edge="1">
          <mxGeometry relative="1" as="geometry" />
        </mxCell>
        <mxCell id="rgNGae-GPq3PH6ZiQCpS-70" value="APAGAR?" style="rhombus;whiteSpace=wrap;html=1;" parent="1" vertex="1">
          <mxGeometry x="30" y="610" width="80" height="80" as="geometry" />
        </mxCell>
        <mxCell id="rgNGae-GPq3PH6ZiQCpS-77" value="" style="edgeStyle=orthogonalEdgeStyle;rounded=0;orthogonalLoop=1;jettySize=auto;html=1;" parent="1" source="rgNGae-GPq3PH6ZiQCpS-72" target="rgNGae-GPq3PH6ZiQCpS-76" edge="1">
          <mxGeometry relative="1" as="geometry" />
        </mxCell>
        <mxCell id="rgNGae-GPq3PH6ZiQCpS-81" value="NÃO" style="edgeStyle=orthogonalEdgeStyle;rounded=0;orthogonalLoop=1;jettySize=auto;html=1;entryX=1;entryY=0.5;entryDx=0;entryDy=0;" parent="1" source="rgNGae-GPq3PH6ZiQCpS-72" target="rgNGae-GPq3PH6ZiQCpS-66" edge="1">
          <mxGeometry relative="1" as="geometry">
            <Array as="points">
              <mxPoint x="-90" y="710" />
              <mxPoint x="140" y="710" />
              <mxPoint x="140" y="500" />
            </Array>
          </mxGeometry>
        </mxCell>
        <mxCell id="rgNGae-GPq3PH6ZiQCpS-72" value="CONFIRMAR?" style="rhombus;whiteSpace=wrap;html=1;" parent="1" vertex="1">
          <mxGeometry x="-130" y="610" width="80" height="80" as="geometry" />
        </mxCell>
        <mxCell id="rgNGae-GPq3PH6ZiQCpS-76" value="APAGAR CLIENTE" style="whiteSpace=wrap;html=1;" parent="1" vertex="1">
          <mxGeometry x="-150" y="460" width="120" height="60" as="geometry" />
        </mxCell>
        <mxCell id="rgNGae-GPq3PH6ZiQCpS-78" style="edgeStyle=orthogonalEdgeStyle;rounded=0;orthogonalLoop=1;jettySize=auto;html=1;entryX=0.008;entryY=0.425;entryDx=0;entryDy=0;entryPerimeter=0;" parent="1" source="rgNGae-GPq3PH6ZiQCpS-76" target="rgNGae-GPq3PH6ZiQCpS-1" edge="1">
          <mxGeometry relative="1" as="geometry">
            <Array as="points">
              <mxPoint x="-90" y="64" />
            </Array>
          </mxGeometry>
        </mxCell>
        <mxCell id="rgNGae-GPq3PH6ZiQCpS-86" value="SIM" style="edgeStyle=orthogonalEdgeStyle;rounded=0;orthogonalLoop=1;jettySize=auto;html=1;" parent="1" source="rgNGae-GPq3PH6ZiQCpS-83" target="rgNGae-GPq3PH6ZiQCpS-85" edge="1">
          <mxGeometry relative="1" as="geometry" />
        </mxCell>
        <mxCell id="rgNGae-GPq3PH6ZiQCpS-83" value="ATUALIZAR?" style="rhombus;whiteSpace=wrap;html=1;" parent="1" vertex="1">
          <mxGeometry x="190" y="610" width="80" height="80" as="geometry" />
        </mxCell>
        <mxCell id="rgNGae-GPq3PH6ZiQCpS-90" value="SIM" style="edgeStyle=orthogonalEdgeStyle;rounded=0;orthogonalLoop=1;jettySize=auto;html=1;" parent="1" source="rgNGae-GPq3PH6ZiQCpS-85" target="rgNGae-GPq3PH6ZiQCpS-89" edge="1">
          <mxGeometry relative="1" as="geometry">
            <Array as="points">
              <mxPoint x="405" y="760" />
            </Array>
          </mxGeometry>
        </mxCell>
        <mxCell id="rgNGae-GPq3PH6ZiQCpS-92" value="NÃO" style="edgeStyle=orthogonalEdgeStyle;rounded=0;orthogonalLoop=1;jettySize=auto;html=1;entryX=0.5;entryY=0;entryDx=0;entryDy=0;" parent="1" source="rgNGae-GPq3PH6ZiQCpS-85" target="rgNGae-GPq3PH6ZiQCpS-83" edge="1">
          <mxGeometry relative="1" as="geometry">
            <Array as="points">
              <mxPoint x="405" y="590" />
              <mxPoint x="230" y="590" />
            </Array>
          </mxGeometry>
        </mxCell>
        <mxCell id="rgNGae-GPq3PH6ZiQCpS-85" value="OS DADOS SÃO VALIDOS?" style="rhombus;whiteSpace=wrap;html=1;" parent="1" vertex="1">
          <mxGeometry x="360" y="605" width="90" height="90" as="geometry" />
        </mxCell>
        <mxCell id="rgNGae-GPq3PH6ZiQCpS-93" style="edgeStyle=orthogonalEdgeStyle;rounded=0;orthogonalLoop=1;jettySize=auto;html=1;entryX=0;entryY=0.5;entryDx=0;entryDy=0;" parent="1" source="rgNGae-GPq3PH6ZiQCpS-89" target="rgNGae-GPq3PH6ZiQCpS-1" edge="1">
          <mxGeometry relative="1" as="geometry">
            <Array as="points">
              <mxPoint x="540" y="800" />
              <mxPoint x="-170" y="800" />
              <mxPoint x="-170" y="70" />
            </Array>
          </mxGeometry>
        </mxCell>
        <mxCell id="GkKXNaheouPqaV0zloFi-3" value="" style="edgeStyle=orthogonalEdgeStyle;rounded=0;orthogonalLoop=1;jettySize=auto;html=1;" edge="1" parent="1" source="rgNGae-GPq3PH6ZiQCpS-89" target="GkKXNaheouPqaV0zloFi-2">
          <mxGeometry relative="1" as="geometry" />
        </mxCell>
        <mxCell id="rgNGae-GPq3PH6ZiQCpS-89" value="CADASTRO ATUALIZADO" style="whiteSpace=wrap;html=1;" parent="1" vertex="1">
          <mxGeometry x="480" y="730" width="120" height="60" as="geometry" />
        </mxCell>
        <mxCell id="Fiw9YNF2Q4vRS0ur8zdI-45" value="" style="edgeStyle=orthogonalEdgeStyle;rounded=0;orthogonalLoop=1;jettySize=auto;html=1;" parent="1" source="Fiw9YNF2Q4vRS0ur8zdI-1" target="Fiw9YNF2Q4vRS0ur8zdI-44" edge="1">
          <mxGeometry relative="1" as="geometry" />
        </mxCell>
        <mxCell id="Fiw9YNF2Q4vRS0ur8zdI-1" value="INICIO" style="ellipse;whiteSpace=wrap;html=1;" parent="1" vertex="1">
          <mxGeometry y="910" width="120" height="80" as="geometry" />
        </mxCell>
        <mxCell id="Fiw9YNF2Q4vRS0ur8zdI-47" value="" style="edgeStyle=orthogonalEdgeStyle;rounded=0;orthogonalLoop=1;jettySize=auto;html=1;" parent="1" source="Fiw9YNF2Q4vRS0ur8zdI-44" target="Fiw9YNF2Q4vRS0ur8zdI-46" edge="1">
          <mxGeometry relative="1" as="geometry" />
        </mxCell>
        <mxCell id="Fiw9YNF2Q4vRS0ur8zdI-64" value="" style="edgeStyle=orthogonalEdgeStyle;rounded=0;orthogonalLoop=1;jettySize=auto;html=1;" parent="1" source="Fiw9YNF2Q4vRS0ur8zdI-44" target="Fiw9YNF2Q4vRS0ur8zdI-63" edge="1">
          <mxGeometry relative="1" as="geometry" />
        </mxCell>
        <mxCell id="Fiw9YNF2Q4vRS0ur8zdI-44" value="LISTAR FORNECEDOR&amp;nbsp;" style="whiteSpace=wrap;html=1;" parent="1" vertex="1">
          <mxGeometry y="1080" width="120" height="60" as="geometry" />
        </mxCell>
        <mxCell id="Fiw9YNF2Q4vRS0ur8zdI-57" value="NÃO" style="edgeStyle=orthogonalEdgeStyle;rounded=0;orthogonalLoop=1;jettySize=auto;html=1;" parent="1" source="Fiw9YNF2Q4vRS0ur8zdI-46" target="Fiw9YNF2Q4vRS0ur8zdI-56" edge="1">
          <mxGeometry relative="1" as="geometry" />
        </mxCell>
        <mxCell id="Fiw9YNF2Q4vRS0ur8zdI-66" value="SIM" style="edgeStyle=orthogonalEdgeStyle;rounded=0;orthogonalLoop=1;jettySize=auto;html=1;entryX=1;entryY=0.5;entryDx=0;entryDy=0;" parent="1" source="Fiw9YNF2Q4vRS0ur8zdI-46" target="Fiw9YNF2Q4vRS0ur8zdI-63" edge="1">
          <mxGeometry relative="1" as="geometry">
            <mxPoint x="140" y="1280" as="targetPoint" />
            <Array as="points">
              <mxPoint x="260" y="1250" />
            </Array>
          </mxGeometry>
        </mxCell>
        <mxCell id="Fiw9YNF2Q4vRS0ur8zdI-46" value="POSSUI CADASTRO?" style="rhombus;whiteSpace=wrap;html=1;" parent="1" vertex="1">
          <mxGeometry x="220" y="1070" width="80" height="80" as="geometry" />
        </mxCell>
        <mxCell id="Fiw9YNF2Q4vRS0ur8zdI-53" value="SIM" style="edgeStyle=orthogonalEdgeStyle;rounded=0;orthogonalLoop=1;jettySize=auto;html=1;" parent="1" source="Fiw9YNF2Q4vRS0ur8zdI-50" target="Fiw9YNF2Q4vRS0ur8zdI-52" edge="1">
          <mxGeometry relative="1" as="geometry" />
        </mxCell>
        <mxCell id="Fiw9YNF2Q4vRS0ur8zdI-61" value="" style="edgeStyle=orthogonalEdgeStyle;rounded=0;orthogonalLoop=1;jettySize=auto;html=1;" parent="1" source="Fiw9YNF2Q4vRS0ur8zdI-50" target="Fiw9YNF2Q4vRS0ur8zdI-60" edge="1">
          <mxGeometry relative="1" as="geometry">
            <Array as="points">
              <mxPoint x="650" y="1170" />
              <mxPoint x="540" y="1170" />
            </Array>
          </mxGeometry>
        </mxCell>
        <mxCell id="Fiw9YNF2Q4vRS0ur8zdI-50" value="É VALIDO?" style="rhombus;whiteSpace=wrap;html=1;" parent="1" vertex="1">
          <mxGeometry x="610" y="1070" width="80" height="80" as="geometry" />
        </mxCell>
        <mxCell id="Fiw9YNF2Q4vRS0ur8zdI-54" style="edgeStyle=orthogonalEdgeStyle;rounded=0;orthogonalLoop=1;jettySize=auto;html=1;entryX=1;entryY=0.5;entryDx=0;entryDy=0;" parent="1" source="Fiw9YNF2Q4vRS0ur8zdI-52" target="Fiw9YNF2Q4vRS0ur8zdI-1" edge="1">
          <mxGeometry relative="1" as="geometry" />
        </mxCell>
        <mxCell id="Fiw9YNF2Q4vRS0ur8zdI-52" value="CADASTRADO COM SUCESSO" style="whiteSpace=wrap;html=1;" parent="1" vertex="1">
          <mxGeometry x="590" y="920" width="120" height="60" as="geometry" />
        </mxCell>
        <mxCell id="Fiw9YNF2Q4vRS0ur8zdI-59" style="edgeStyle=orthogonalEdgeStyle;rounded=0;orthogonalLoop=1;jettySize=auto;html=1;entryX=0;entryY=0.5;entryDx=0;entryDy=0;" parent="1" source="Fiw9YNF2Q4vRS0ur8zdI-56" target="Fiw9YNF2Q4vRS0ur8zdI-50" edge="1">
          <mxGeometry relative="1" as="geometry" />
        </mxCell>
        <mxCell id="Fiw9YNF2Q4vRS0ur8zdI-56" value="CADASTRAR FORNECEDOR&amp;nbsp;" style="whiteSpace=wrap;html=1;" parent="1" vertex="1">
          <mxGeometry x="360" y="1080" width="120" height="60" as="geometry" />
        </mxCell>
        <mxCell id="Fiw9YNF2Q4vRS0ur8zdI-60" value="MOSTRAR ERRO&amp;nbsp;" style="whiteSpace=wrap;html=1;" parent="1" vertex="1">
          <mxGeometry x="480" y="1210" width="120" height="60" as="geometry" />
        </mxCell>
        <mxCell id="Fiw9YNF2Q4vRS0ur8zdI-62" value="NÃO" style="edgeStyle=orthogonalEdgeStyle;rounded=0;orthogonalLoop=1;jettySize=auto;html=1;entryX=0.342;entryY=1.017;entryDx=0;entryDy=0;entryPerimeter=0;" parent="1" source="Fiw9YNF2Q4vRS0ur8zdI-50" target="Fiw9YNF2Q4vRS0ur8zdI-56" edge="1">
          <mxGeometry relative="1" as="geometry">
            <Array as="points">
              <mxPoint x="650" y="1170" />
              <mxPoint x="401" y="1170" />
            </Array>
          </mxGeometry>
        </mxCell>
        <mxCell id="Fiw9YNF2Q4vRS0ur8zdI-68" value="" style="edgeStyle=orthogonalEdgeStyle;rounded=0;orthogonalLoop=1;jettySize=auto;html=1;" parent="1" source="Fiw9YNF2Q4vRS0ur8zdI-63" target="Fiw9YNF2Q4vRS0ur8zdI-67" edge="1">
          <mxGeometry relative="1" as="geometry" />
        </mxCell>
        <mxCell id="Fiw9YNF2Q4vRS0ur8zdI-63" value="BUSCAR FORNECEDOR&amp;nbsp;" style="whiteSpace=wrap;html=1;" parent="1" vertex="1">
          <mxGeometry y="1220" width="120" height="60" as="geometry" />
        </mxCell>
        <mxCell id="Fiw9YNF2Q4vRS0ur8zdI-69" value="NÃO" style="edgeStyle=orthogonalEdgeStyle;rounded=0;orthogonalLoop=1;jettySize=auto;html=1;entryX=0;entryY=0.5;entryDx=0;entryDy=0;" parent="1" source="Fiw9YNF2Q4vRS0ur8zdI-67" target="Fiw9YNF2Q4vRS0ur8zdI-63" edge="1">
          <mxGeometry relative="1" as="geometry">
            <Array as="points">
              <mxPoint x="-20" y="1400" />
              <mxPoint x="-20" y="1250" />
            </Array>
          </mxGeometry>
        </mxCell>
        <mxCell id="Fiw9YNF2Q4vRS0ur8zdI-71" value="SIM" style="edgeStyle=orthogonalEdgeStyle;rounded=0;orthogonalLoop=1;jettySize=auto;html=1;" parent="1" source="Fiw9YNF2Q4vRS0ur8zdI-67" target="Fiw9YNF2Q4vRS0ur8zdI-70" edge="1">
          <mxGeometry relative="1" as="geometry" />
        </mxCell>
        <mxCell id="Fiw9YNF2Q4vRS0ur8zdI-67" value="FORNECEDOR ENCONTRADO?" style="rhombus;whiteSpace=wrap;html=1;" parent="1" vertex="1">
          <mxGeometry x="5" y="1350" width="110" height="100" as="geometry" />
        </mxCell>
        <mxCell id="Fiw9YNF2Q4vRS0ur8zdI-73" value="SIM" style="edgeStyle=orthogonalEdgeStyle;rounded=0;orthogonalLoop=1;jettySize=auto;html=1;" parent="1" source="Fiw9YNF2Q4vRS0ur8zdI-70" target="Fiw9YNF2Q4vRS0ur8zdI-72" edge="1">
          <mxGeometry relative="1" as="geometry" />
        </mxCell>
        <mxCell id="Fiw9YNF2Q4vRS0ur8zdI-80" value="NÃO" style="edgeStyle=orthogonalEdgeStyle;rounded=0;orthogonalLoop=1;jettySize=auto;html=1;" parent="1" source="Fiw9YNF2Q4vRS0ur8zdI-70" target="Fiw9YNF2Q4vRS0ur8zdI-79" edge="1">
          <mxGeometry relative="1" as="geometry" />
        </mxCell>
        <mxCell id="Fiw9YNF2Q4vRS0ur8zdI-70" value="APAGAR?" style="rhombus;whiteSpace=wrap;html=1;" parent="1" vertex="1">
          <mxGeometry x="20" y="1510" width="80" height="80" as="geometry" />
        </mxCell>
        <mxCell id="Fiw9YNF2Q4vRS0ur8zdI-75" value="" style="edgeStyle=orthogonalEdgeStyle;rounded=0;orthogonalLoop=1;jettySize=auto;html=1;" parent="1" source="Fiw9YNF2Q4vRS0ur8zdI-72" target="Fiw9YNF2Q4vRS0ur8zdI-74" edge="1">
          <mxGeometry relative="1" as="geometry" />
        </mxCell>
        <mxCell id="Fiw9YNF2Q4vRS0ur8zdI-72" value="CONFIRMAR?" style="rhombus;whiteSpace=wrap;html=1;" parent="1" vertex="1">
          <mxGeometry x="-140" y="1510" width="80" height="80" as="geometry" />
        </mxCell>
        <mxCell id="Fiw9YNF2Q4vRS0ur8zdI-76" style="edgeStyle=orthogonalEdgeStyle;rounded=0;orthogonalLoop=1;jettySize=auto;html=1;entryX=0;entryY=0.5;entryDx=0;entryDy=0;" parent="1" source="Fiw9YNF2Q4vRS0ur8zdI-74" target="Fiw9YNF2Q4vRS0ur8zdI-1" edge="1">
          <mxGeometry relative="1" as="geometry">
            <Array as="points">
              <mxPoint x="-100" y="950" />
            </Array>
          </mxGeometry>
        </mxCell>
        <mxCell id="Fiw9YNF2Q4vRS0ur8zdI-74" value="APAGAR FORNECEDOR&amp;nbsp;" style="whiteSpace=wrap;html=1;" parent="1" vertex="1">
          <mxGeometry x="-160" y="1360" width="120" height="60" as="geometry" />
        </mxCell>
        <mxCell id="Fiw9YNF2Q4vRS0ur8zdI-82" value="SIM" style="edgeStyle=orthogonalEdgeStyle;rounded=0;orthogonalLoop=1;jettySize=auto;html=1;" parent="1" source="Fiw9YNF2Q4vRS0ur8zdI-79" target="Fiw9YNF2Q4vRS0ur8zdI-81" edge="1">
          <mxGeometry relative="1" as="geometry" />
        </mxCell>
        <mxCell id="Fiw9YNF2Q4vRS0ur8zdI-79" value="ATUALIZAR?" style="rhombus;whiteSpace=wrap;html=1;" parent="1" vertex="1">
          <mxGeometry x="180" y="1510" width="80" height="80" as="geometry" />
        </mxCell>
        <mxCell id="Fiw9YNF2Q4vRS0ur8zdI-83" value="NÃO" style="edgeStyle=orthogonalEdgeStyle;rounded=0;orthogonalLoop=1;jettySize=auto;html=1;entryX=0.5;entryY=0;entryDx=0;entryDy=0;" parent="1" source="Fiw9YNF2Q4vRS0ur8zdI-81" target="Fiw9YNF2Q4vRS0ur8zdI-79" edge="1">
          <mxGeometry relative="1" as="geometry">
            <Array as="points">
              <mxPoint x="380" y="1490" />
              <mxPoint x="220" y="1490" />
            </Array>
          </mxGeometry>
        </mxCell>
        <mxCell id="Fiw9YNF2Q4vRS0ur8zdI-85" value="" style="edgeStyle=orthogonalEdgeStyle;rounded=0;orthogonalLoop=1;jettySize=auto;html=1;" parent="1" source="Fiw9YNF2Q4vRS0ur8zdI-81" target="Fiw9YNF2Q4vRS0ur8zdI-84" edge="1">
          <mxGeometry relative="1" as="geometry" />
        </mxCell>
        <mxCell id="Fiw9YNF2Q4vRS0ur8zdI-81" value="DADOS SÃO VALIDOS?" style="rhombus;whiteSpace=wrap;html=1;" parent="1" vertex="1">
          <mxGeometry x="340" y="1510" width="80" height="80" as="geometry" />
        </mxCell>
        <mxCell id="Fiw9YNF2Q4vRS0ur8zdI-86" style="edgeStyle=orthogonalEdgeStyle;rounded=0;orthogonalLoop=1;jettySize=auto;html=1;entryX=0.05;entryY=0.25;entryDx=0;entryDy=0;entryPerimeter=0;" parent="1" source="Fiw9YNF2Q4vRS0ur8zdI-84" target="Fiw9YNF2Q4vRS0ur8zdI-1" edge="1">
          <mxGeometry relative="1" as="geometry">
            <mxPoint y="930" as="targetPoint" />
            <Array as="points">
              <mxPoint x="540" y="1620" />
              <mxPoint x="-220" y="1620" />
              <mxPoint x="-220" y="930" />
            </Array>
          </mxGeometry>
        </mxCell>
        <mxCell id="Fiw9YNF2Q4vRS0ur8zdI-84" value="CADASTRO ATUALIZADO" style="whiteSpace=wrap;html=1;" parent="1" vertex="1">
          <mxGeometry x="480" y="1520" width="120" height="60" as="geometry" />
        </mxCell>
        <mxCell id="Fiw9YNF2Q4vRS0ur8zdI-89" value="" style="edgeStyle=orthogonalEdgeStyle;rounded=0;orthogonalLoop=1;jettySize=auto;html=1;" parent="1" source="Fiw9YNF2Q4vRS0ur8zdI-87" target="Fiw9YNF2Q4vRS0ur8zdI-88" edge="1">
          <mxGeometry relative="1" as="geometry" />
        </mxCell>
        <mxCell id="Fiw9YNF2Q4vRS0ur8zdI-87" value="INICIO&amp;nbsp;" style="ellipse;whiteSpace=wrap;html=1;" parent="1" vertex="1">
          <mxGeometry y="1760" width="120" height="80" as="geometry" />
        </mxCell>
        <mxCell id="Fiw9YNF2Q4vRS0ur8zdI-91" value="" style="edgeStyle=orthogonalEdgeStyle;rounded=0;orthogonalLoop=1;jettySize=auto;html=1;" parent="1" source="Fiw9YNF2Q4vRS0ur8zdI-88" target="Fiw9YNF2Q4vRS0ur8zdI-90" edge="1">
          <mxGeometry relative="1" as="geometry" />
        </mxCell>
        <mxCell id="Fiw9YNF2Q4vRS0ur8zdI-100" value="" style="edgeStyle=orthogonalEdgeStyle;rounded=0;orthogonalLoop=1;jettySize=auto;html=1;" parent="1" source="Fiw9YNF2Q4vRS0ur8zdI-88" target="Fiw9YNF2Q4vRS0ur8zdI-99" edge="1">
          <mxGeometry relative="1" as="geometry" />
        </mxCell>
        <mxCell id="Fiw9YNF2Q4vRS0ur8zdI-88" value="LISTAR ESTOQUE&amp;nbsp;" style="whiteSpace=wrap;html=1;" parent="1" vertex="1">
          <mxGeometry y="1900" width="120" height="60" as="geometry" />
        </mxCell>
        <mxCell id="Fiw9YNF2Q4vRS0ur8zdI-93" value="" style="edgeStyle=orthogonalEdgeStyle;rounded=0;orthogonalLoop=1;jettySize=auto;html=1;" parent="1" source="Fiw9YNF2Q4vRS0ur8zdI-90" target="Fiw9YNF2Q4vRS0ur8zdI-92" edge="1">
          <mxGeometry relative="1" as="geometry" />
        </mxCell>
        <mxCell id="Fiw9YNF2Q4vRS0ur8zdI-90" value="POSSUI CADASTRO?" style="rhombus;whiteSpace=wrap;html=1;" parent="1" vertex="1">
          <mxGeometry x="210" y="1880" width="100" height="100" as="geometry" />
        </mxCell>
        <mxCell id="Fiw9YNF2Q4vRS0ur8zdI-95" value="" style="edgeStyle=orthogonalEdgeStyle;rounded=0;orthogonalLoop=1;jettySize=auto;html=1;" parent="1" source="Fiw9YNF2Q4vRS0ur8zdI-92" target="Fiw9YNF2Q4vRS0ur8zdI-94" edge="1">
          <mxGeometry relative="1" as="geometry" />
        </mxCell>
        <mxCell id="Fiw9YNF2Q4vRS0ur8zdI-92" value="CADASTRAR ESTOQUE" style="whiteSpace=wrap;html=1;" parent="1" vertex="1">
          <mxGeometry x="380" y="1900" width="120" height="60" as="geometry" />
        </mxCell>
        <mxCell id="Fiw9YNF2Q4vRS0ur8zdI-97" value="" style="edgeStyle=orthogonalEdgeStyle;rounded=0;orthogonalLoop=1;jettySize=auto;html=1;" parent="1" source="Fiw9YNF2Q4vRS0ur8zdI-94" target="Fiw9YNF2Q4vRS0ur8zdI-96" edge="1">
          <mxGeometry relative="1" as="geometry" />
        </mxCell>
        <mxCell id="Fiw9YNF2Q4vRS0ur8zdI-94" value="É VALIDO?" style="rhombus;whiteSpace=wrap;html=1;" parent="1" vertex="1">
          <mxGeometry x="600" y="1890" width="80" height="80" as="geometry" />
        </mxCell>
        <mxCell id="Fiw9YNF2Q4vRS0ur8zdI-98" style="edgeStyle=orthogonalEdgeStyle;rounded=0;orthogonalLoop=1;jettySize=auto;html=1;entryX=1.017;entryY=0.313;entryDx=0;entryDy=0;entryPerimeter=0;" parent="1" source="Fiw9YNF2Q4vRS0ur8zdI-96" target="Fiw9YNF2Q4vRS0ur8zdI-87" edge="1">
          <mxGeometry relative="1" as="geometry">
            <mxPoint x="130" y="1790" as="targetPoint" />
            <Array as="points">
              <mxPoint x="122" y="1790" />
            </Array>
          </mxGeometry>
        </mxCell>
        <mxCell id="Fiw9YNF2Q4vRS0ur8zdI-96" value="CADASTRADO COM SUCESSO&amp;nbsp;" style="whiteSpace=wrap;html=1;" parent="1" vertex="1">
          <mxGeometry x="580" y="1760" width="120" height="60" as="geometry" />
        </mxCell>
        <mxCell id="Fiw9YNF2Q4vRS0ur8zdI-99" value="BUSCAR ESTOQUE&amp;nbsp;" style="whiteSpace=wrap;html=1;" parent="1" vertex="1">
          <mxGeometry y="2040" width="120" height="60" as="geometry" />
        </mxCell>
        <mxCell id="GkKXNaheouPqaV0zloFi-2" value="FIM" style="ellipse;whiteSpace=wrap;html=1;" vertex="1" parent="1">
          <mxGeometry x="700" y="720" width="110" height="80" as="geometry" />
        </mxCell>
      </root>
    </mxGraphModel>
  </diagram>
  <diagram id="4p1ethOtPt87IWJAUF-A" name="Página-2">
    <mxGraphModel dx="2261" dy="782" grid="1" gridSize="10" guides="1" tooltips="1" connect="1" arrows="1" fold="1" page="1" pageScale="1" pageWidth="827" pageHeight="1169" math="0" shadow="0">
      <root>
        <mxCell id="0" />
        <mxCell id="1" parent="0" />
        <mxCell id="T77zXkHdtmkHp0ugyWrL-38" value="" style="edgeStyle=orthogonalEdgeStyle;rounded=0;orthogonalLoop=1;jettySize=auto;html=1;" edge="1" parent="1" target="T77zXkHdtmkHp0ugyWrL-41">
          <mxGeometry relative="1" as="geometry">
            <mxPoint x="80" y="219" as="sourcePoint" />
          </mxGeometry>
        </mxCell>
        <mxCell id="T77zXkHdtmkHp0ugyWrL-39" value="" style="edgeStyle=orthogonalEdgeStyle;rounded=0;orthogonalLoop=1;jettySize=auto;html=1;" edge="1" parent="1" source="T77zXkHdtmkHp0ugyWrL-41" target="T77zXkHdtmkHp0ugyWrL-44">
          <mxGeometry relative="1" as="geometry" />
        </mxCell>
        <mxCell id="T77zXkHdtmkHp0ugyWrL-40" value="" style="edgeStyle=orthogonalEdgeStyle;rounded=0;orthogonalLoop=1;jettySize=auto;html=1;" edge="1" parent="1" source="T77zXkHdtmkHp0ugyWrL-41" target="T77zXkHdtmkHp0ugyWrL-55">
          <mxGeometry relative="1" as="geometry" />
        </mxCell>
        <mxCell id="T77zXkHdtmkHp0ugyWrL-41" value="LISTAR FORNECEDOR&amp;nbsp;" style="whiteSpace=wrap;html=1;" vertex="1" parent="1">
          <mxGeometry x="20" y="309" width="120" height="60" as="geometry" />
        </mxCell>
        <mxCell id="T77zXkHdtmkHp0ugyWrL-42" value="NÃO" style="edgeStyle=orthogonalEdgeStyle;rounded=0;orthogonalLoop=1;jettySize=auto;html=1;" edge="1" parent="1" source="T77zXkHdtmkHp0ugyWrL-44" target="T77zXkHdtmkHp0ugyWrL-51">
          <mxGeometry relative="1" as="geometry" />
        </mxCell>
        <mxCell id="T77zXkHdtmkHp0ugyWrL-43" value="SIM" style="edgeStyle=orthogonalEdgeStyle;rounded=0;orthogonalLoop=1;jettySize=auto;html=1;entryX=1;entryY=0.5;entryDx=0;entryDy=0;" edge="1" parent="1" source="T77zXkHdtmkHp0ugyWrL-44" target="T77zXkHdtmkHp0ugyWrL-55">
          <mxGeometry relative="1" as="geometry">
            <mxPoint x="160" y="509" as="targetPoint" />
            <Array as="points">
              <mxPoint x="280" y="479" />
            </Array>
          </mxGeometry>
        </mxCell>
        <mxCell id="T77zXkHdtmkHp0ugyWrL-44" value="POSSUI CADASTRO?" style="rhombus;whiteSpace=wrap;html=1;" vertex="1" parent="1">
          <mxGeometry x="240" y="299" width="80" height="80" as="geometry" />
        </mxCell>
        <mxCell id="T77zXkHdtmkHp0ugyWrL-45" value="SIM" style="edgeStyle=orthogonalEdgeStyle;rounded=0;orthogonalLoop=1;jettySize=auto;html=1;" edge="1" parent="1" source="T77zXkHdtmkHp0ugyWrL-47" target="T77zXkHdtmkHp0ugyWrL-49">
          <mxGeometry relative="1" as="geometry" />
        </mxCell>
        <mxCell id="T77zXkHdtmkHp0ugyWrL-46" value="" style="edgeStyle=orthogonalEdgeStyle;rounded=0;orthogonalLoop=1;jettySize=auto;html=1;" edge="1" parent="1" source="T77zXkHdtmkHp0ugyWrL-47" target="T77zXkHdtmkHp0ugyWrL-52">
          <mxGeometry relative="1" as="geometry">
            <Array as="points">
              <mxPoint x="670" y="399" />
              <mxPoint x="560" y="399" />
            </Array>
          </mxGeometry>
        </mxCell>
        <mxCell id="T77zXkHdtmkHp0ugyWrL-47" value="É VALIDO?" style="rhombus;whiteSpace=wrap;html=1;" vertex="1" parent="1">
          <mxGeometry x="630" y="299" width="80" height="80" as="geometry" />
        </mxCell>
        <mxCell id="T77zXkHdtmkHp0ugyWrL-48" style="edgeStyle=orthogonalEdgeStyle;rounded=0;orthogonalLoop=1;jettySize=auto;html=1;entryX=1;entryY=0.5;entryDx=0;entryDy=0;" edge="1" parent="1" source="T77zXkHdtmkHp0ugyWrL-49">
          <mxGeometry relative="1" as="geometry">
            <mxPoint x="140" y="179" as="targetPoint" />
          </mxGeometry>
        </mxCell>
        <mxCell id="T77zXkHdtmkHp0ugyWrL-49" value="CADASTRADO COM SUCESSO" style="whiteSpace=wrap;html=1;" vertex="1" parent="1">
          <mxGeometry x="610" y="149" width="120" height="60" as="geometry" />
        </mxCell>
        <mxCell id="T77zXkHdtmkHp0ugyWrL-50" style="edgeStyle=orthogonalEdgeStyle;rounded=0;orthogonalLoop=1;jettySize=auto;html=1;entryX=0;entryY=0.5;entryDx=0;entryDy=0;" edge="1" parent="1" source="T77zXkHdtmkHp0ugyWrL-51" target="T77zXkHdtmkHp0ugyWrL-47">
          <mxGeometry relative="1" as="geometry" />
        </mxCell>
        <mxCell id="T77zXkHdtmkHp0ugyWrL-51" value="CADASTRAR FORNECEDOR&amp;nbsp;" style="whiteSpace=wrap;html=1;" vertex="1" parent="1">
          <mxGeometry x="380" y="309" width="120" height="60" as="geometry" />
        </mxCell>
        <mxCell id="T77zXkHdtmkHp0ugyWrL-52" value="MOSTRAR ERRO&amp;nbsp;" style="whiteSpace=wrap;html=1;" vertex="1" parent="1">
          <mxGeometry x="500" y="439" width="120" height="60" as="geometry" />
        </mxCell>
        <mxCell id="T77zXkHdtmkHp0ugyWrL-53" value="NÃO" style="edgeStyle=orthogonalEdgeStyle;rounded=0;orthogonalLoop=1;jettySize=auto;html=1;entryX=0.342;entryY=1.017;entryDx=0;entryDy=0;entryPerimeter=0;" edge="1" parent="1" source="T77zXkHdtmkHp0ugyWrL-47" target="T77zXkHdtmkHp0ugyWrL-51">
          <mxGeometry relative="1" as="geometry">
            <Array as="points">
              <mxPoint x="670" y="399" />
              <mxPoint x="421" y="399" />
            </Array>
          </mxGeometry>
        </mxCell>
        <mxCell id="T77zXkHdtmkHp0ugyWrL-54" value="" style="edgeStyle=orthogonalEdgeStyle;rounded=0;orthogonalLoop=1;jettySize=auto;html=1;" edge="1" parent="1" source="T77zXkHdtmkHp0ugyWrL-55" target="T77zXkHdtmkHp0ugyWrL-58">
          <mxGeometry relative="1" as="geometry" />
        </mxCell>
        <mxCell id="T77zXkHdtmkHp0ugyWrL-55" value="BUSCAR FORNECEDOR&amp;nbsp;" style="whiteSpace=wrap;html=1;" vertex="1" parent="1">
          <mxGeometry x="20" y="449" width="120" height="60" as="geometry" />
        </mxCell>
        <mxCell id="T77zXkHdtmkHp0ugyWrL-56" value="NÃO" style="edgeStyle=orthogonalEdgeStyle;rounded=0;orthogonalLoop=1;jettySize=auto;html=1;entryX=0;entryY=0.5;entryDx=0;entryDy=0;" edge="1" parent="1" source="T77zXkHdtmkHp0ugyWrL-58" target="T77zXkHdtmkHp0ugyWrL-55">
          <mxGeometry relative="1" as="geometry">
            <Array as="points">
              <mxPoint y="629" />
              <mxPoint y="479" />
            </Array>
          </mxGeometry>
        </mxCell>
        <mxCell id="T77zXkHdtmkHp0ugyWrL-57" value="SIM" style="edgeStyle=orthogonalEdgeStyle;rounded=0;orthogonalLoop=1;jettySize=auto;html=1;" edge="1" parent="1" source="T77zXkHdtmkHp0ugyWrL-58" target="T77zXkHdtmkHp0ugyWrL-61">
          <mxGeometry relative="1" as="geometry" />
        </mxCell>
        <mxCell id="T77zXkHdtmkHp0ugyWrL-58" value="FORNECEDOR ENCONTRADO?" style="rhombus;whiteSpace=wrap;html=1;" vertex="1" parent="1">
          <mxGeometry x="25" y="579" width="110" height="100" as="geometry" />
        </mxCell>
        <mxCell id="T77zXkHdtmkHp0ugyWrL-59" value="SIM" style="edgeStyle=orthogonalEdgeStyle;rounded=0;orthogonalLoop=1;jettySize=auto;html=1;" edge="1" parent="1" source="T77zXkHdtmkHp0ugyWrL-61" target="T77zXkHdtmkHp0ugyWrL-63">
          <mxGeometry relative="1" as="geometry" />
        </mxCell>
        <mxCell id="T77zXkHdtmkHp0ugyWrL-60" value="NÃO" style="edgeStyle=orthogonalEdgeStyle;rounded=0;orthogonalLoop=1;jettySize=auto;html=1;" edge="1" parent="1" source="T77zXkHdtmkHp0ugyWrL-61" target="T77zXkHdtmkHp0ugyWrL-67">
          <mxGeometry relative="1" as="geometry" />
        </mxCell>
        <mxCell id="T77zXkHdtmkHp0ugyWrL-61" value="APAGAR?" style="rhombus;whiteSpace=wrap;html=1;" vertex="1" parent="1">
          <mxGeometry x="40" y="739" width="80" height="80" as="geometry" />
        </mxCell>
        <mxCell id="T77zXkHdtmkHp0ugyWrL-62" value="" style="edgeStyle=orthogonalEdgeStyle;rounded=0;orthogonalLoop=1;jettySize=auto;html=1;" edge="1" parent="1" source="T77zXkHdtmkHp0ugyWrL-63" target="T77zXkHdtmkHp0ugyWrL-65">
          <mxGeometry relative="1" as="geometry" />
        </mxCell>
        <mxCell id="T77zXkHdtmkHp0ugyWrL-63" value="CONFIRMAR?" style="rhombus;whiteSpace=wrap;html=1;" vertex="1" parent="1">
          <mxGeometry x="-120" y="739" width="80" height="80" as="geometry" />
        </mxCell>
        <mxCell id="T77zXkHdtmkHp0ugyWrL-64" style="edgeStyle=orthogonalEdgeStyle;rounded=0;orthogonalLoop=1;jettySize=auto;html=1;entryX=0;entryY=0.5;entryDx=0;entryDy=0;" edge="1" parent="1" source="T77zXkHdtmkHp0ugyWrL-65">
          <mxGeometry relative="1" as="geometry">
            <Array as="points">
              <mxPoint x="-80" y="179" />
            </Array>
            <mxPoint x="20" y="179" as="targetPoint" />
          </mxGeometry>
        </mxCell>
        <mxCell id="T77zXkHdtmkHp0ugyWrL-65" value="APAGAR FORNECEDOR&amp;nbsp;" style="whiteSpace=wrap;html=1;" vertex="1" parent="1">
          <mxGeometry x="-140" y="589" width="120" height="60" as="geometry" />
        </mxCell>
        <mxCell id="T77zXkHdtmkHp0ugyWrL-66" value="SIM" style="edgeStyle=orthogonalEdgeStyle;rounded=0;orthogonalLoop=1;jettySize=auto;html=1;" edge="1" parent="1" source="T77zXkHdtmkHp0ugyWrL-67" target="T77zXkHdtmkHp0ugyWrL-70">
          <mxGeometry relative="1" as="geometry" />
        </mxCell>
        <mxCell id="T77zXkHdtmkHp0ugyWrL-67" value="ATUALIZAR?" style="rhombus;whiteSpace=wrap;html=1;" vertex="1" parent="1">
          <mxGeometry x="200" y="739" width="80" height="80" as="geometry" />
        </mxCell>
        <mxCell id="T77zXkHdtmkHp0ugyWrL-68" value="NÃO" style="edgeStyle=orthogonalEdgeStyle;rounded=0;orthogonalLoop=1;jettySize=auto;html=1;entryX=0.5;entryY=0;entryDx=0;entryDy=0;" edge="1" parent="1" source="T77zXkHdtmkHp0ugyWrL-70" target="T77zXkHdtmkHp0ugyWrL-67">
          <mxGeometry relative="1" as="geometry">
            <Array as="points">
              <mxPoint x="400" y="719" />
              <mxPoint x="240" y="719" />
            </Array>
          </mxGeometry>
        </mxCell>
        <mxCell id="T77zXkHdtmkHp0ugyWrL-69" value="" style="edgeStyle=orthogonalEdgeStyle;rounded=0;orthogonalLoop=1;jettySize=auto;html=1;" edge="1" parent="1" source="T77zXkHdtmkHp0ugyWrL-70" target="T77zXkHdtmkHp0ugyWrL-72">
          <mxGeometry relative="1" as="geometry" />
        </mxCell>
        <mxCell id="T77zXkHdtmkHp0ugyWrL-70" value="DADOS SÃO VALIDOS?" style="rhombus;whiteSpace=wrap;html=1;" vertex="1" parent="1">
          <mxGeometry x="360" y="739" width="80" height="80" as="geometry" />
        </mxCell>
        <mxCell id="T77zXkHdtmkHp0ugyWrL-71" style="edgeStyle=orthogonalEdgeStyle;rounded=0;orthogonalLoop=1;jettySize=auto;html=1;entryX=0.05;entryY=0.25;entryDx=0;entryDy=0;entryPerimeter=0;" edge="1" parent="1" source="T77zXkHdtmkHp0ugyWrL-72">
          <mxGeometry relative="1" as="geometry">
            <mxPoint x="26" y="159" as="targetPoint" />
            <Array as="points">
              <mxPoint x="560" y="849" />
              <mxPoint x="-200" y="849" />
              <mxPoint x="-200" y="159" />
            </Array>
          </mxGeometry>
        </mxCell>
        <mxCell id="T77zXkHdtmkHp0ugyWrL-72" value="CADASTRO ATUALIZADO" style="whiteSpace=wrap;html=1;" vertex="1" parent="1">
          <mxGeometry x="500" y="749" width="120" height="60" as="geometry" />
        </mxCell>
        <mxCell id="T77zXkHdtmkHp0ugyWrL-73" value="INICIO" style="ellipse;whiteSpace=wrap;html=1;" vertex="1" parent="1">
          <mxGeometry x="20" y="139" width="120" height="80" as="geometry" />
        </mxCell>
      </root>
    </mxGraphModel>
  </diagram>
  <diagram id="LbQBzm9eEtXAJWuy1g2C" name="Página-3">
    <mxGraphModel dx="1434" dy="-387" grid="1" gridSize="10" guides="1" tooltips="1" connect="1" arrows="1" fold="1" page="1" pageScale="1" pageWidth="827" pageHeight="1169" math="0" shadow="0">
      <root>
        <mxCell id="0" />
        <mxCell id="1" parent="0" />
        <mxCell id="WKUTKYNKKWfZEXXbSehJ-1" value="" style="edgeStyle=orthogonalEdgeStyle;rounded=0;orthogonalLoop=1;jettySize=auto;html=1;" edge="1" parent="1" source="WKUTKYNKKWfZEXXbSehJ-2" target="WKUTKYNKKWfZEXXbSehJ-5">
          <mxGeometry relative="1" as="geometry" />
        </mxCell>
        <mxCell id="WKUTKYNKKWfZEXXbSehJ-2" value="INICIO&amp;nbsp;" style="ellipse;whiteSpace=wrap;html=1;" vertex="1" parent="1">
          <mxGeometry x="78" y="1280" width="120" height="80" as="geometry" />
        </mxCell>
        <mxCell id="WKUTKYNKKWfZEXXbSehJ-3" value="" style="edgeStyle=orthogonalEdgeStyle;rounded=0;orthogonalLoop=1;jettySize=auto;html=1;" edge="1" parent="1" source="WKUTKYNKKWfZEXXbSehJ-5" target="WKUTKYNKKWfZEXXbSehJ-7">
          <mxGeometry relative="1" as="geometry" />
        </mxCell>
        <mxCell id="WKUTKYNKKWfZEXXbSehJ-4" value="" style="edgeStyle=orthogonalEdgeStyle;rounded=0;orthogonalLoop=1;jettySize=auto;html=1;" edge="1" parent="1" source="WKUTKYNKKWfZEXXbSehJ-5" target="WKUTKYNKKWfZEXXbSehJ-14">
          <mxGeometry relative="1" as="geometry" />
        </mxCell>
        <mxCell id="WKUTKYNKKWfZEXXbSehJ-5" value="LISTAR ESTOQUE&amp;nbsp;" style="whiteSpace=wrap;html=1;" vertex="1" parent="1">
          <mxGeometry x="78" y="1420" width="120" height="60" as="geometry" />
        </mxCell>
        <mxCell id="WKUTKYNKKWfZEXXbSehJ-6" value="" style="edgeStyle=orthogonalEdgeStyle;rounded=0;orthogonalLoop=1;jettySize=auto;html=1;" edge="1" parent="1" source="WKUTKYNKKWfZEXXbSehJ-7" target="WKUTKYNKKWfZEXXbSehJ-9">
          <mxGeometry relative="1" as="geometry" />
        </mxCell>
        <mxCell id="WKUTKYNKKWfZEXXbSehJ-7" value="POSSUI CADASTRO?" style="rhombus;whiteSpace=wrap;html=1;" vertex="1" parent="1">
          <mxGeometry x="288" y="1400" width="100" height="100" as="geometry" />
        </mxCell>
        <mxCell id="WKUTKYNKKWfZEXXbSehJ-8" value="" style="edgeStyle=orthogonalEdgeStyle;rounded=0;orthogonalLoop=1;jettySize=auto;html=1;" edge="1" parent="1" source="WKUTKYNKKWfZEXXbSehJ-9" target="WKUTKYNKKWfZEXXbSehJ-11">
          <mxGeometry relative="1" as="geometry" />
        </mxCell>
        <mxCell id="WKUTKYNKKWfZEXXbSehJ-9" value="CADASTRAR ESTOQUE" style="whiteSpace=wrap;html=1;" vertex="1" parent="1">
          <mxGeometry x="458" y="1420" width="120" height="60" as="geometry" />
        </mxCell>
        <mxCell id="WKUTKYNKKWfZEXXbSehJ-10" value="" style="edgeStyle=orthogonalEdgeStyle;rounded=0;orthogonalLoop=1;jettySize=auto;html=1;" edge="1" parent="1" source="WKUTKYNKKWfZEXXbSehJ-11" target="WKUTKYNKKWfZEXXbSehJ-13">
          <mxGeometry relative="1" as="geometry" />
        </mxCell>
        <mxCell id="WKUTKYNKKWfZEXXbSehJ-11" value="É VALIDO?" style="rhombus;whiteSpace=wrap;html=1;" vertex="1" parent="1">
          <mxGeometry x="678" y="1410" width="80" height="80" as="geometry" />
        </mxCell>
        <mxCell id="WKUTKYNKKWfZEXXbSehJ-12" style="edgeStyle=orthogonalEdgeStyle;rounded=0;orthogonalLoop=1;jettySize=auto;html=1;entryX=1.017;entryY=0.313;entryDx=0;entryDy=0;entryPerimeter=0;" edge="1" parent="1" source="WKUTKYNKKWfZEXXbSehJ-13" target="WKUTKYNKKWfZEXXbSehJ-2">
          <mxGeometry relative="1" as="geometry">
            <mxPoint x="208" y="1310" as="targetPoint" />
            <Array as="points">
              <mxPoint x="200" y="1310" />
            </Array>
          </mxGeometry>
        </mxCell>
        <mxCell id="WKUTKYNKKWfZEXXbSehJ-13" value="CADASTRADO COM SUCESSO&amp;nbsp;" style="whiteSpace=wrap;html=1;" vertex="1" parent="1">
          <mxGeometry x="658" y="1280" width="120" height="60" as="geometry" />
        </mxCell>
        <mxCell id="WKUTKYNKKWfZEXXbSehJ-14" value="BUSCAR ESTOQUE&amp;nbsp;" style="whiteSpace=wrap;html=1;" vertex="1" parent="1">
          <mxGeometry x="78" y="1560" width="120" height="60" as="geometry" />
        </mxCell>
      </root>
    </mxGraphModel>
  </diagram>
  <diagram id="emHs5y1z4IdiYOe_hIwa" name="Página-4">
    <mxGraphModel dx="1434" dy="782" grid="1" gridSize="10" guides="1" tooltips="1" connect="1" arrows="1" fold="1" page="1" pageScale="1" pageWidth="827" pageHeight="1169" math="0" shadow="0">
      <root>
        <mxCell id="0" />
        <mxCell id="1" parent="0" />
        <mxCell id="3FGUaxCZPwPqk6HE0NR3-5" value="" style="shape=ext;double=1;rounded=0;whiteSpace=wrap;html=1;" vertex="1" parent="1">
          <mxGeometry x="170" y="50" width="450" height="800" as="geometry" />
        </mxCell>
        <mxCell id="3FGUaxCZPwPqk6HE0NR3-6" value="" style="shape=ext;double=1;rounded=0;whiteSpace=wrap;html=1;" vertex="1" parent="1">
          <mxGeometry x="190" y="110" width="370" height="30" as="geometry" />
        </mxCell>
      </root>
    </mxGraphModel>
  </diagram>
</mxfile>
